<?xml version="1.0" encoding="UTF-8" standalone="no"?>
<!-- Created with Inkscape (http://www.inkscape.org/) -->

<svg
   version="1.1"
   id="svg2"
   width="29.999996"
   height="45.000023"
   viewBox="0 0 29.999997 45.000024"
   sodipodi:docname="home.svg"
   inkscape:version="1.2.2 (b0a8486541, 2022-12-01)"
   xmlns:inkscape="http://www.inkscape.org/namespaces/inkscape"
   xmlns:sodipodi="http://sodipodi.sourceforge.net/DTD/sodipodi-0.dtd"
   xmlns="http://www.w3.org/2000/svg"
   xmlns:svg="http://www.w3.org/2000/svg">
  <defs
     id="defs6" />
  <sodipodi:namedview
     id="namedview4"
     pagecolor="#ffffff"
     bordercolor="#000000"
     borderopacity="0.25"
     inkscape:showpageshadow="2"
     inkscape:pageopacity="0.0"
     inkscape:pagecheckerboard="0"
     inkscape:deskcolor="#d1d1d1"
     showgrid="false"
     inkscape:zoom="5.8046875"
     inkscape:cx="49.615074"
     inkscape:cy="48.15074"
     inkscape:window-width="1920"
     inkscape:window-height="1008"
     inkscape:window-x="0"
     inkscape:window-y="0"
     inkscape:window-maximized="1"
     inkscape:current-layer="g8" />
  <g
     inkscape:groupmode="layer"
     inkscape:label="Image"
     id="g8"
     transform="translate(-132.3888,-14.507477)">
    <path
       style="fill:#f44336;fill-opacity:1;stroke-width:0.099689"
       d="m 146.73078,59.115496 c -0.19311,-0.207295 -0.84897,-1.011057 -1.45747,-1.786131 -3.83586,-4.885986 -7.4776,-10.63778 -9.5123,-15.023816 -3.40921,-7.348979 -4.19091,-12.768928 -2.53787,-17.596339 0.77534,-2.264249 1.81141,-3.915048 3.59511,-5.728174 2.22987,-2.266657 4.55725,-3.554072 7.6549,-4.234384 1.44878,-0.318185 4.41045,-0.319046 5.85472,-0.0017 3.12439,0.686506 5.42226,1.95656 7.66312,4.235482 2.23014,2.268015 3.49576,4.632182 4.16587,7.781795 0.28962,1.361227 0.31233,4.502595 0.0437,6.045324 -0.93361,5.361962 -3.63199,11.394664 -8.18203,18.29244 -1.80635,2.738379 -4.66818,6.60848 -5.85293,7.914996 -0.56751,0.625833 -0.9223,0.650686 -1.43484,0.100512 z m 2.99744,-17.562931 c 4.75542,-1.037569 8.25865,-4.601556 9.30386,-9.465226 0.23318,-1.085045 0.23318,-3.605514 0,-4.690558 -1.05078,-4.889606 -4.5698,-8.448492 -9.37649,-9.48274 -1.11637,-0.240207 -3.38556,-0.240207 -4.50194,0 -4.82833,1.038904 -8.36303,4.631927 -9.38508,9.539916 -0.23824,1.144111 -0.23637,3.440807 0.004,4.59502 1.06931,5.139843 5.05017,8.942035 10.09971,9.64642 0.9016,0.125767 2.97756,0.04887 3.85619,-0.142832 z m -7.61799,-5.6247 -0.2427,-0.246701 V 32.711611 29.74206 h -0.94382 c -0.87025,0 -0.96274,-0.01923 -1.18652,-0.246702 -0.23395,-0.237805 -0.30473,-0.577615 -0.1859,-0.892409 0.0846,-0.224168 7.31964,-6.735321 7.60659,-6.845544 0.15456,-0.05937 0.33893,-0.05937 0.49349,0 0.28694,0.110223 7.52195,6.621376 7.60658,6.845544 0.11883,0.314794 0.0481,0.654604 -0.18589,0.892409 -0.22378,0.227471 -0.31628,0.246702 -1.18653,0.246702 h -0.94382 v 2.969551 2.969553 l -0.24269,0.246701 c -0.23624,0.240133 -0.28243,0.246701 -1.73484,0.246701 -1.45241,0 -1.4986,-0.0066 -1.73483,-0.246701 -0.23379,-0.237646 -0.2427,-0.296673 -0.2427,-1.608127 v -1.361425 h -1.58203 -1.58203 v 1.361425 c 0,1.311454 -0.009,1.370481 -0.24269,1.608127 -0.23624,0.240133 -0.28243,0.246701 -1.73484,0.246701 -1.45241,0 -1.4986,-0.0066 -1.73483,-0.246701 z"
       id="path861" />
    <path
       style="fill:#000000"
       id="path859"
       d="" />
  </g>
</svg>
